<?xml version="1.0" encoding="UTF-8"?>
<svg xmlns="http://www.w3.org/2000/svg" xmlns:xlink="http://www.w3.org/1999/xlink" width="140px" height="140px" viewBox="0 0 140 140" version="1.1">
<g id="surface1">
<path style=" stroke:none;fill-rule:nonzero;fill:rgb(53.72549%,8.235294%,30.980392%);fill-opacity:1;" d="M 106.398438 55.402344 L 106.398438 84.605469 C 112.441406 85.351562 117.324219 88.09375 120.867188 93.042969 C 123.46875 96.679688 124.753906 101.089844 124.511719 105.554688 C 124.160156 114.304688 117.660156 122.023438 109.007812 124.03125 C 99.046875 126.246094 88.996094 120.683594 85.582031 111.066406 C 84.523438 111.289062 83.453125 111.453125 82.375 111.558594 C 79.203125 111.679688 76.027344 111.753906 72.851562 111.78125 C 68.609375 111.816406 64.367188 111.753906 60.128906 111.804688 C 56.261719 111.890625 52.414062 111.1875 48.824219 109.746094 C 48.65625 109.675781 48.476562 109.636719 48.199219 109.550781 L 48.199219 121.757812 C 48.199219 124.019531 47.730469 124.511719 45.5 124.511719 L 25.394531 124.511719 C 22.863281 124.511719 20.324219 124.511719 17.789062 124.511719 C 16.140625 124.511719 15.488281 123.875 15.488281 122.265625 C 15.488281 109.199219 15.488281 96.132812 15.488281 83.066406 C 15.488281 81.527344 16.152344 80.886719 17.730469 80.882812 L 31.765625 80.882812 L 31.765625 59.148438 C 29.367188 58.683594 30.207031 56.667969 29.921875 54.734375 C 29.320312 55.429688 28.949219 55.933594 28.5 56.367188 C 27.457031 57.371094 26.5625 57.375 25.535156 56.367188 C 23.085938 53.945312 20.652344 51.507812 18.226562 49.054688 C 17.210938 48.03125 17.21875 47.132812 18.226562 46.097656 C 18.667969 45.664062 19.132812 45.292969 19.601562 44.894531 L 19.488281 44.570312 C 18.84375 44.570312 18.195312 44.570312 17.546875 44.570312 C 16.203125 44.535156 15.511719 43.875 15.503906 42.535156 C 15.484375 39.054688 15.484375 35.574219 15.503906 32.089844 C 15.503906 30.738281 16.1875 30.078125 17.53125 30.039062 C 18.167969 30.039062 18.800781 30.039062 19.433594 30.039062 L 19.671875 29.730469 C 19.203125 29.359375 18.738281 29.015625 18.335938 28.605469 C 17.207031 27.476562 17.195312 26.601562 18.300781 25.484375 C 20.671875 23.09375 23.054688 20.710938 25.449219 18.335938 C 26.609375 17.1875 27.46875 17.203125 28.65625 18.382812 C 29.050781 18.769531 29.390625 19.207031 29.753906 19.625 L 30.035156 19.460938 C 30.035156 18.835938 30.035156 18.210938 30.035156 17.59375 C 30.066406 16.191406 30.71875 15.527344 32.148438 15.519531 C 35.605469 15.488281 39.042969 15.484375 42.464844 15.503906 C 43.867188 15.503906 44.515625 16.1875 44.546875 17.617188 C 44.546875 18.214844 44.546875 18.816406 44.546875 19.730469 C 45.191406 19.097656 45.640625 18.625 46.117188 18.1875 C 47.121094 17.253906 48.019531 17.253906 49 18.1875 C 51.476562 20.636719 53.984375 23.058594 56.355469 25.605469 C 56.890625 26.179688 56.925781 27.226562 57.21875 28.148438 C 66.414062 28.53125 75.996094 27.570312 85.652344 28.8125 C 87.761719 23.277344 91.554688 19.152344 97.199219 16.882812 C 101.230469 15.242188 105.699219 15.003906 109.886719 16.207031 C 118.199219 18.503906 124.265625 26.195312 124.492188 34.695312 C 124.714844 39.828125 122.921875 44.839844 119.488281 48.664062 C 116.03125 52.625 111.601562 54.796875 106.398438 55.402344 Z M 102.667969 84.621094 L 102.667969 55.578125 C 90.167969 52.925781 84.140625 45.3125 84.566406 32.332031 C 76.164062 31.328125 67.671875 32.132812 59.097656 31.792969 L 59.097656 33.195312 C 59.097656 36.261719 59.097656 39.324219 59.097656 42.390625 C 59.097656 43.878906 58.429688 44.523438 56.953125 44.550781 C 56.335938 44.550781 55.71875 44.550781 55.085938 44.550781 L 54.972656 44.871094 C 55.441406 45.292969 55.972656 45.683594 56.414062 46.148438 C 57.320312 47.082031 57.347656 48.015625 56.414062 48.949219 C 53.949219 51.460938 51.460938 53.949219 48.949219 56.414062 C 47.984375 57.347656 47.082031 57.347656 46.070312 56.363281 C 45.601562 55.929688 45.234375 55.429688 44.820312 54.964844 L 44.535156 55.144531 C 44.535156 55.46875 44.535156 55.789062 44.535156 56.117188 C 44.535156 58.730469 44.148438 59.097656 41.496094 59.097656 L 35.558594 59.097656 L 35.558594 80.859375 C 38.15625 81.007812 38.15625 81.003906 39.941406 82.792969 C 41.730469 84.578125 43.480469 86.332031 45.265625 88.105469 C 45.972656 88.816406 46.667969 89.554688 47.441406 90.371094 C 48.28125 89.484375 48.960938 88.722656 49.691406 88.003906 C 50.660156 87.023438 51.960938 86.445312 53.339844 86.378906 C 55.664062 86.257812 57.832031 87.566406 58.800781 89.683594 C 59.808594 91.847656 59.332031 94.414062 57.613281 96.074219 C 54.816406 98.9375 51.949219 101.757812 49.117188 104.59375 C 48.839844 104.871094 48.589844 105.167969 48.300781 105.480469 C 51.355469 107.132812 54.753906 108.042969 58.226562 108.144531 C 65.496094 108.179688 72.761719 108.1875 80.035156 108.144531 C 81.59375 108.144531 83.152344 107.785156 84.746094 107.589844 C 84.023438 101.773438 85.335938 96.691406 88.816406 92.253906 C 92.296875 87.816406 97.015625 85.292969 102.667969 84.621094 Z M 120.867188 35.546875 C 120.867188 26.539062 113.554688 19.136719 104.640625 19.132812 C 95.617188 19.074219 88.253906 26.34375 88.199219 35.367188 C 88.144531 44.390625 95.421875 51.75 104.445312 51.800781 C 113.46875 51.847656 120.824219 44.570312 120.867188 35.546875 Z M 120.867188 104.5625 C 120.867188 95.539062 113.550781 88.222656 104.527344 88.226562 C 95.5 88.230469 88.191406 95.554688 88.199219 104.578125 C 88.207031 113.601562 95.53125 120.90625 104.558594 120.894531 C 113.554688 120.847656 120.832031 113.558594 120.867188 104.5625 Z M 44.496094 109.132812 C 43.136719 110.535156 42.023438 111.707031 40.851562 112.824219 C 40.398438 113.265625 39.867188 113.617188 39.289062 113.867188 C 36.566406 115 33.824219 116.074219 31.09375 117.183594 C 30.261719 117.519531 29.476562 117.609375 28.761719 116.9375 C 28.046875 116.265625 28.128906 115.398438 28.484375 114.53125 C 29.554688 111.902344 30.5625 109.257812 31.667969 106.648438 C 31.972656 105.921875 32.414062 105.257812 32.960938 104.691406 C 36.597656 101 40.261719 97.332031 43.957031 93.691406 C 44.621094 93.035156 44.664062 92.621094 43.957031 91.953125 C 41.671875 89.738281 39.46875 87.445312 37.179688 85.246094 C 36.726562 84.832031 36.140625 84.589844 35.527344 84.558594 C 30.421875 84.507812 25.3125 84.53125 20.203125 84.53125 L 19.183594 84.53125 L 19.183594 120.796875 L 44.511719 120.796875 Z M 47.46875 22.039062 C 46.121094 22.972656 45.382812 25.027344 42.800781 23.980469 C 40.222656 22.9375 41.207031 20.847656 40.832031 19.195312 L 33.773438 19.195312 C 33.304688 20.746094 34.398438 22.578125 32.28125 23.75 C 29.671875 25.199219 28.464844 23.390625 27.183594 22.050781 L 22.050781 27.183594 C 22.984375 28.496094 25.019531 29.265625 23.949219 31.820312 C 22.878906 34.378906 20.886719 33.433594 19.183594 33.75 L 19.183594 40.9375 C 20.050781 40.9375 20.839844 40.9375 21.628906 40.9375 C 22.5625 40.9375 23.109375 41.402344 23.617188 42.160156 C 25.273438 44.683594 23.53125 46.113281 21.929688 47.496094 L 27.011719 52.628906 C 28.410156 51.75 29.125 49.597656 31.707031 50.628906 C 34.285156 51.660156 33.394531 53.71875 33.703125 55.417969 L 40.894531 55.417969 C 41.09375 53.582031 40.320312 51.683594 42.890625 50.625 C 45.460938 49.566406 46.15625 51.785156 47.53125 52.605469 L 52.574219 47.554688 C 51.679688 46.152344 49.558594 45.46875 50.601562 42.886719 C 51.640625 40.304688 53.714844 41.238281 55.410156 40.898438 L 55.410156 33.726562 C 53.652344 33.449219 51.679688 34.308594 50.609375 31.789062 C 49.542969 29.269531 51.6875 28.4375 52.550781 27.121094 Z M 48.402344 94.898438 L 36.609375 106.632812 L 39.042969 109.164062 L 50.867188 97.367188 Z M 50.964844 91.886719 L 53.738281 94.816406 C 54.578125 93.855469 56.070312 93.191406 55.601562 91.613281 C 55.316406 90.898438 54.730469 90.351562 54.003906 90.109375 C 52.4375 89.707031 51.800781 91.136719 50.957031 91.886719 Z M 33.296875 112.386719 L 35.519531 111.453125 L 34.277344 109.929688 Z M 33.296875 112.386719 "/>
<path style=" stroke:none;fill-rule:nonzero;fill:rgb(53.72549%,8.235294%,30.980392%);fill-opacity:1;" d="M 76.972656 66.8125 C 79.53125 67.542969 81.808594 69.03125 83.503906 71.082031 C 85.910156 74 86.609375 77.40625 86.351562 81.070312 C 86.273438 82.164062 85.492188 82.726562 84.171875 82.726562 C 80.4375 82.726562 76.695312 82.726562 72.941406 82.726562 L 56 82.726562 C 54.230469 82.726562 53.644531 82.121094 53.628906 80.328125 C 53.582031 73.515625 56.402344 69.34375 62.671875 66.9375 C 62.769531 66.886719 62.863281 66.824219 62.945312 66.753906 C 59.960938 61.421875 60.433594 56.929688 64.296875 53.851562 C 67.726562 51.082031 72.65625 51.183594 75.964844 54.101562 C 79.617188 57.296875 80.011719 61.953125 76.972656 66.8125 Z M 57.335938 79.019531 L 82.675781 79.019531 C 82.746094 74.882812 79.707031 70.796875 75.589844 70.328125 C 71.871094 69.902344 68.113281 69.902344 64.390625 70.328125 C 60.308594 70.792969 57.25 74.898438 57.335938 79.019531 Z M 75.449219 60.894531 C 75.433594 57.890625 72.992188 55.46875 69.992188 55.472656 C 66.988281 55.476562 64.554688 57.910156 64.550781 60.914062 C 64.542969 63.917969 66.96875 66.359375 69.972656 66.375 C 71.425781 66.375 72.820312 65.800781 73.847656 64.773438 C 74.875 63.742188 75.453125 62.347656 75.449219 60.894531 Z M 75.449219 60.894531 "/>
<path style=" stroke:none;fill-rule:nonzero;fill:rgb(53.72549%,8.235294%,30.980392%);fill-opacity:1;" d="M 95.992188 36.8125 L 98.523438 34.273438 L 104.296875 40.230469 L 114.046875 28.867188 L 116.8125 31.203125 L 113.335938 35.265625 C 110.96875 38.023438 108.601562 40.777344 106.242188 43.535156 C 105.09375 44.871094 104.140625 44.933594 102.90625 43.6875 C 100.621094 41.433594 98.355469 39.164062 95.992188 36.8125 Z M 95.992188 36.8125 "/>
<path style=" stroke:none;fill-rule:nonzero;fill:rgb(53.72549%,8.235294%,30.980392%);fill-opacity:1;" d="M 107.609375 113.023438 L 105.183594 110.539062 L 109.164062 106.734375 L 108.972656 106.410156 L 93.699219 106.410156 L 93.699219 102.761719 L 109.007812 102.761719 L 104.882812 98.765625 L 107.75 96.1875 C 107.929688 96.320312 108.101562 96.460938 108.261719 96.613281 C 110.351562 98.695312 112.4375 100.78125 114.519531 102.867188 C 115.742188 104.097656 115.761719 104.953125 114.566406 106.132812 C 112.464844 108.253906 110.351562 110.363281 108.234375 112.464844 C 108.046875 112.671875 107.835938 112.824219 107.609375 113.023438 Z M 107.609375 113.023438 "/>
<path style=" stroke:none;fill-rule:nonzero;fill:rgb(53.72549%,8.235294%,30.980392%);fill-opacity:1;" d="M 37.226562 91.761719 L 22.867188 91.761719 L 22.867188 88.257812 L 37.226562 88.257812 Z M 37.226562 91.761719 "/>
<path style=" stroke:none;fill-rule:nonzero;fill:rgb(53.72549%,8.235294%,30.980392%);fill-opacity:1;" d="M 33.601562 95.53125 L 33.601562 99.027344 L 22.867188 99.027344 L 22.867188 95.53125 Z M 33.601562 95.53125 "/>
<path style=" stroke:none;fill-rule:nonzero;fill:rgb(53.72549%,8.235294%,30.980392%);fill-opacity:1;" d="M 22.824219 102.773438 L 28.121094 102.773438 L 28.121094 106.277344 L 22.824219 106.277344 Z M 22.824219 102.773438 "/>
<path style=" stroke:none;fill-rule:nonzero;fill:rgb(53.72549%,8.235294%,30.980392%);fill-opacity:1;" d="M 26.34375 110.050781 L 26.34375 113.542969 L 22.828125 113.542969 L 22.828125 110.050781 Z M 26.34375 110.050781 "/>
<path style=" stroke:none;fill-rule:nonzero;fill:rgb(53.72549%,8.235294%,30.980392%);fill-opacity:1;" d="M 26.390625 36.699219 C 25.539062 33.941406 27.324219 31.816406 29.511719 29.515625 C 31.699219 27.214844 34.066406 26.28125 37.332031 26.273438 C 40.601562 26.265625 42.847656 27.230469 45.132812 29.539062 C 47.414062 31.851562 48.332031 34.035156 48.34375 37.246094 C 48.34375 40.511719 47.410156 42.84375 45.074219 45.15625 C 42.742188 47.464844 40.558594 48.324219 37.363281 48.335938 C 34.164062 48.351562 31.761719 47.554688 29.578125 45.070312 C 26.554688 41.667969 26.390625 41.8125 26.390625 36.699219 Z M 44.5625 37.800781 C 44.5625 34.300781 44.460938 34.394531 42.457031 32.128906 C 41.058594 30.519531 39.507812 29.972656 37.375 29.96875 C 35.367188 29.859375 33.417969 30.65625 32.058594 32.140625 C 30.644531 33.464844 29.875 35.335938 29.941406 37.273438 C 29.84375 39.277344 30.65625 41.21875 32.152344 42.554688 C 33.445312 43.941406 35.265625 44.707031 37.160156 44.660156 C 39.414062 44.660156 41.015625 44.078125 42.570312 42.425781 C 43.980469 40.925781 45.09375 39.5625 44.5625 37.800781 Z M 44.5625 37.800781 "/>
</g>
</svg>
