<?xml version="1.0" encoding="UTF-8"?>
<svg xmlns="http://www.w3.org/2000/svg" xmlns:xlink="http://www.w3.org/1999/xlink" width="100px" height="100px" viewBox="0 0 100 100" version="1.1">
<g id="surface1">
<path style=" stroke:none;fill-rule:nonzero;fill:rgb(53.72549%,8.235294%,30.980392%);fill-opacity:1;" d="M 76 39.574219 L 76 60.433594 C 80.316406 60.964844 83.804688 62.921875 86.332031 66.460938 C 88.191406 69.054688 89.109375 72.207031 88.9375 75.398438 C 88.6875 81.648438 84.042969 87.160156 77.863281 88.59375 C 70.746094 90.175781 63.566406 86.203125 61.128906 79.332031 C 60.375 79.492188 59.609375 79.609375 58.839844 79.683594 C 56.574219 79.773438 54.304688 79.824219 52.035156 79.84375 C 49.007812 79.871094 45.976562 79.824219 42.949219 79.859375 C 40.1875 79.921875 37.4375 79.421875 34.875 78.390625 C 34.753906 78.339844 34.625 78.3125 34.425781 78.25 L 34.425781 86.96875 C 34.425781 88.585938 34.09375 88.9375 32.5 88.9375 L 18.140625 88.9375 C 16.328125 88.9375 14.515625 88.9375 12.707031 88.9375 C 11.53125 88.9375 11.0625 88.484375 11.0625 87.332031 C 11.0625 78 11.0625 68.667969 11.0625 59.332031 C 11.0625 58.234375 11.535156 57.777344 12.664062 57.773438 L 22.691406 57.773438 L 22.691406 42.25 C 20.976562 41.917969 21.578125 40.476562 21.375 39.097656 C 20.941406 39.59375 20.675781 39.953125 20.355469 40.261719 C 19.613281 40.980469 18.972656 40.984375 18.238281 40.261719 C 16.492188 38.53125 14.75 36.792969 13.019531 35.039062 C 12.292969 34.308594 12.300781 33.667969 13.019531 32.925781 C 13.332031 32.617188 13.667969 32.351562 14 32.066406 L 13.921875 31.835938 C 13.460938 31.835938 12.996094 31.835938 12.535156 31.835938 C 11.574219 31.808594 11.078125 31.339844 11.074219 30.382812 C 11.058594 27.898438 11.058594 25.410156 11.074219 22.921875 C 11.074219 21.957031 11.5625 21.484375 12.523438 21.457031 C 12.976562 21.457031 13.429688 21.457031 13.878906 21.457031 L 14.050781 21.238281 C 13.714844 20.96875 13.382812 20.726562 13.097656 20.433594 C 12.289062 19.625 12.285156 19 13.074219 18.203125 C 14.765625 16.496094 16.46875 14.792969 18.175781 13.097656 C 19.007812 12.277344 19.621094 12.285156 20.46875 13.128906 C 20.75 13.40625 20.992188 13.71875 21.253906 14.015625 L 21.453125 13.898438 C 21.453125 13.453125 21.453125 13.007812 21.453125 12.566406 C 21.476562 11.566406 21.941406 11.089844 22.964844 11.085938 C 25.433594 11.0625 27.890625 11.058594 30.332031 11.074219 C 31.332031 11.074219 31.796875 11.5625 31.820312 12.582031 C 31.820312 13.011719 31.820312 13.441406 31.820312 14.09375 C 32.28125 13.640625 32.601562 13.304688 32.941406 12.988281 C 33.65625 12.324219 34.300781 12.324219 35 12.988281 C 36.769531 14.738281 38.558594 16.46875 40.253906 18.289062 C 40.636719 18.699219 40.660156 19.445312 40.871094 20.105469 C 47.441406 20.378906 54.285156 19.691406 61.179688 20.578125 C 62.6875 16.625 65.398438 13.679688 69.425781 12.058594 C 72.308594 10.886719 75.5 10.714844 78.488281 11.578125 C 84.425781 13.214844 88.761719 18.710938 88.921875 24.785156 C 89.082031 28.449219 87.800781 32.03125 85.351562 34.761719 C 82.878906 37.589844 79.714844 39.140625 76 39.574219 Z M 73.332031 60.441406 L 73.332031 39.699219 C 64.40625 37.804688 60.101562 32.367188 60.402344 23.09375 C 54.402344 22.375 48.335938 22.953125 42.214844 22.710938 L 42.214844 23.710938 C 42.214844 25.898438 42.214844 28.089844 42.214844 30.28125 C 42.214844 31.34375 41.738281 31.804688 40.679688 31.824219 C 40.238281 31.824219 39.800781 31.824219 39.347656 31.824219 L 39.265625 32.050781 C 39.601562 32.351562 39.980469 32.628906 40.296875 32.964844 C 40.941406 33.628906 40.964844 34.296875 40.296875 34.964844 C 38.535156 36.757812 36.757812 38.535156 34.964844 40.296875 C 34.273438 40.964844 33.628906 40.964844 32.90625 40.261719 C 32.574219 39.949219 32.308594 39.59375 32.011719 39.261719 L 31.808594 39.390625 C 31.808594 39.621094 31.808594 39.851562 31.808594 40.082031 C 31.808594 41.949219 31.535156 42.214844 29.640625 42.214844 L 25.398438 42.214844 L 25.398438 57.757812 C 27.253906 57.863281 27.253906 57.859375 28.53125 59.136719 C 29.808594 60.414062 31.058594 61.667969 32.332031 62.933594 C 32.835938 63.441406 33.332031 63.964844 33.886719 64.550781 C 34.488281 63.917969 34.972656 63.375 35.492188 62.859375 C 36.1875 62.160156 37.117188 61.746094 38.101562 61.699219 C 39.761719 61.613281 41.308594 62.546875 42 64.058594 C 42.71875 65.605469 42.378906 67.4375 41.152344 68.625 C 39.152344 70.671875 37.105469 72.683594 35.082031 74.710938 C 34.886719 74.90625 34.707031 75.121094 34.5 75.34375 C 36.683594 76.523438 39.109375 77.175781 41.589844 77.246094 C 46.785156 77.269531 51.972656 77.277344 57.167969 77.246094 C 58.28125 77.246094 59.394531 76.988281 60.535156 76.851562 C 60.015625 72.695312 60.953125 69.066406 63.441406 65.898438 C 65.925781 62.726562 69.296875 60.921875 73.332031 60.441406 Z M 86.332031 25.390625 C 86.332031 18.957031 81.109375 13.671875 74.742188 13.667969 C 68.296875 13.625 63.039062 18.816406 63 25.261719 C 62.960938 31.707031 68.15625 36.964844 74.601562 37 C 81.050781 37.035156 86.300781 31.835938 86.332031 25.390625 Z M 86.332031 74.6875 C 86.332031 68.242188 81.105469 63.015625 74.660156 63.019531 C 68.214844 63.023438 62.992188 68.253906 63 74.699219 C 63.007812 81.144531 68.238281 86.363281 74.683594 86.351562 C 81.109375 86.320312 86.308594 81.113281 86.332031 74.6875 Z M 31.785156 77.953125 C 30.8125 78.953125 30.015625 79.789062 29.179688 80.589844 C 28.855469 80.902344 28.476562 81.15625 28.0625 81.332031 C 26.121094 82.144531 24.160156 82.910156 22.210938 83.703125 C 21.617188 83.941406 21.054688 84.007812 20.542969 83.527344 C 20.035156 83.046875 20.09375 82.425781 20.347656 81.808594 C 21.109375 79.929688 21.828125 78.039062 22.621094 76.175781 C 22.839844 75.65625 23.152344 75.183594 23.542969 74.78125 C 26.140625 72.140625 28.757812 69.523438 31.398438 66.921875 C 31.875 66.453125 31.902344 66.15625 31.398438 65.679688 C 29.765625 64.101562 28.191406 62.460938 26.558594 60.890625 C 26.234375 60.59375 25.816406 60.421875 25.375 60.398438 C 21.730469 60.363281 18.078125 60.378906 14.429688 60.378906 L 13.703125 60.378906 L 13.703125 86.285156 L 31.792969 86.285156 Z M 33.90625 15.742188 C 32.941406 16.410156 32.417969 17.875 30.574219 17.128906 C 28.730469 16.382812 29.433594 14.890625 29.167969 13.710938 L 24.125 13.710938 C 23.789062 14.820312 24.570312 16.125 23.058594 16.964844 C 21.191406 18 20.332031 16.707031 19.417969 15.75 L 15.75 19.417969 C 16.417969 20.351562 17.871094 20.902344 17.105469 22.730469 C 16.34375 24.558594 14.921875 23.878906 13.703125 24.105469 L 13.703125 29.238281 C 14.324219 29.238281 14.886719 29.238281 15.449219 29.238281 C 16.117188 29.238281 16.507812 29.574219 16.871094 30.113281 C 18.054688 31.917969 16.808594 32.9375 15.664062 33.925781 L 19.292969 37.59375 C 20.292969 36.964844 20.804688 35.425781 22.648438 36.164062 C 24.488281 36.898438 23.851562 38.371094 24.074219 39.582031 L 29.210938 39.582031 C 29.351562 38.273438 28.800781 36.917969 30.636719 36.160156 C 32.472656 35.402344 32.96875 36.988281 33.949219 37.578125 L 37.554688 33.964844 C 36.914062 32.964844 35.398438 32.476562 36.144531 30.632812 C 36.886719 28.789062 38.367188 29.457031 39.578125 29.214844 L 39.578125 24.089844 C 38.324219 23.894531 36.914062 24.507812 36.148438 22.707031 C 35.386719 20.90625 36.921875 20.3125 37.535156 19.375 Z M 34.574219 67.785156 L 26.148438 76.167969 L 27.886719 77.972656 L 36.332031 69.546875 Z M 36.402344 65.632812 L 38.382812 67.726562 C 38.984375 67.039062 40.050781 66.566406 39.714844 65.4375 C 39.511719 64.929688 39.09375 64.535156 38.574219 64.363281 C 37.457031 64.078125 37 65.097656 36.398438 65.632812 Z M 23.785156 80.277344 L 25.371094 79.609375 L 24.484375 78.519531 Z M 23.785156 80.277344 "/>
<path style=" stroke:none;fill-rule:nonzero;fill:rgb(53.72549%,8.235294%,30.980392%);fill-opacity:1;" d="M 54.980469 47.722656 C 56.808594 48.246094 58.433594 49.308594 59.648438 50.773438 C 61.363281 52.855469 61.863281 55.289062 61.679688 57.90625 C 61.625 58.691406 61.066406 59.089844 60.125 59.089844 C 57.457031 59.089844 54.78125 59.089844 52.101562 59.089844 L 40 59.089844 C 38.738281 59.089844 38.316406 58.65625 38.308594 57.375 C 38.273438 52.511719 40.285156 49.53125 44.765625 47.8125 C 44.835938 47.777344 44.902344 47.734375 44.960938 47.679688 C 42.828125 43.875 43.167969 40.664062 45.925781 38.464844 C 48.375 36.484375 51.898438 36.5625 54.261719 38.644531 C 56.871094 40.925781 57.148438 44.253906 54.980469 47.722656 Z M 40.953125 56.441406 L 59.054688 56.441406 C 59.101562 53.488281 56.933594 50.570312 53.992188 50.234375 C 51.335938 49.929688 48.652344 49.929688 45.992188 50.234375 C 43.078125 50.566406 40.894531 53.5 40.953125 56.441406 Z M 53.894531 43.496094 C 53.882812 41.351562 52.136719 39.621094 49.992188 39.625 C 47.847656 39.628906 46.109375 41.363281 46.105469 43.511719 C 46.101562 45.65625 47.835938 47.398438 49.980469 47.410156 C 51.019531 47.410156 52.015625 47 52.75 46.265625 C 53.484375 45.53125 53.894531 44.535156 53.894531 43.496094 Z M 53.894531 43.496094 "/>
<path style=" stroke:none;fill-rule:nonzero;fill:rgb(53.72549%,8.235294%,30.980392%);fill-opacity:1;" d="M 68.566406 26.292969 L 70.375 24.480469 L 74.496094 28.738281 L 81.464844 20.621094 L 83.4375 22.285156 L 80.953125 25.191406 C 79.261719 27.160156 77.574219 29.128906 75.886719 31.097656 C 75.066406 32.050781 74.386719 32.097656 73.503906 31.207031 C 71.875 29.597656 70.253906 27.972656 68.566406 26.292969 Z M 68.566406 26.292969 "/>
<path style=" stroke:none;fill-rule:nonzero;fill:rgb(53.72549%,8.235294%,30.980392%);fill-opacity:1;" d="M 76.863281 80.730469 L 75.128906 78.957031 L 77.972656 76.238281 L 77.835938 76.007812 L 66.925781 76.007812 L 66.925781 73.398438 L 77.863281 73.398438 L 74.917969 70.546875 L 76.964844 68.707031 C 77.09375 68.800781 77.214844 68.902344 77.328125 69.011719 C 78.824219 70.496094 80.3125 71.984375 81.800781 73.476562 C 82.671875 74.355469 82.6875 74.964844 81.832031 75.808594 C 80.332031 77.324219 78.824219 78.832031 77.308594 80.332031 C 77.175781 80.480469 77.027344 80.589844 76.863281 80.730469 Z M 76.863281 80.730469 "/>
<path style=" stroke:none;fill-rule:nonzero;fill:rgb(53.72549%,8.235294%,30.980392%);fill-opacity:1;" d="M 26.589844 65.542969 L 16.332031 65.542969 L 16.332031 63.039062 L 26.589844 63.039062 Z M 26.589844 65.542969 "/>
<path style=" stroke:none;fill-rule:nonzero;fill:rgb(53.72549%,8.235294%,30.980392%);fill-opacity:1;" d="M 24 68.238281 L 24 70.734375 L 16.332031 70.734375 L 16.332031 68.238281 Z M 24 68.238281 "/>
<path style=" stroke:none;fill-rule:nonzero;fill:rgb(53.72549%,8.235294%,30.980392%);fill-opacity:1;" d="M 16.304688 73.410156 L 20.085938 73.410156 L 20.085938 75.914062 L 16.304688 75.914062 Z M 16.304688 73.410156 "/>
<path style=" stroke:none;fill-rule:nonzero;fill:rgb(53.72549%,8.235294%,30.980392%);fill-opacity:1;" d="M 18.816406 78.605469 L 18.816406 81.101562 L 16.308594 81.101562 L 16.308594 78.605469 Z M 18.816406 78.605469 "/>
<path style=" stroke:none;fill-rule:nonzero;fill:rgb(53.72549%,8.235294%,30.980392%);fill-opacity:1;" d="M 18.851562 26.214844 C 18.242188 24.242188 19.515625 22.726562 21.078125 21.082031 C 22.644531 19.441406 24.332031 18.773438 26.667969 18.765625 C 29 18.761719 30.605469 19.449219 32.238281 21.101562 C 33.867188 22.75 34.523438 24.308594 34.53125 26.601562 C 34.53125 28.9375 33.863281 30.601562 32.195312 32.253906 C 30.53125 33.902344 28.96875 34.515625 26.6875 34.527344 C 24.402344 34.535156 22.6875 33.964844 21.125 32.191406 C 18.964844 29.761719 18.851562 29.867188 18.851562 26.214844 Z M 31.828125 27 C 31.828125 24.5 31.757812 24.566406 30.328125 22.949219 C 29.328125 21.800781 28.21875 21.410156 26.695312 21.40625 C 25.261719 21.328125 23.867188 21.898438 22.898438 22.957031 C 21.890625 23.902344 21.339844 25.238281 21.386719 26.625 C 21.316406 28.054688 21.898438 29.441406 22.964844 30.398438 C 23.886719 31.386719 25.191406 31.933594 26.542969 31.898438 C 28.152344 31.898438 29.296875 31.484375 30.40625 30.304688 C 31.414062 29.234375 32.210938 28.261719 31.828125 27 Z M 31.828125 27 "/>
</g>
</svg>
