<?xml version="1.0" encoding="UTF-8"?>
<svg xmlns="http://www.w3.org/2000/svg" xmlns:xlink="http://www.w3.org/1999/xlink" width="130px" height="130px" viewBox="0 0 130 130" version="1.1">
<g id="surface1">
<path style=" stroke:none;fill-rule:nonzero;fill:rgb(53.72549%,8.235294%,30.980392%);fill-opacity:1;" d="M 98.800781 51.445312 L 98.800781 78.5625 C 104.410156 79.257812 108.945312 81.800781 112.234375 86.398438 C 114.648438 89.773438 115.84375 93.871094 115.617188 98.015625 C 115.292969 106.140625 109.257812 113.308594 101.222656 115.171875 C 91.972656 117.230469 82.636719 112.066406 79.46875 103.132812 C 78.484375 103.339844 77.492188 103.492188 76.492188 103.589844 C 73.546875 103.703125 70.597656 103.773438 67.648438 103.796875 C 63.707031 103.832031 59.769531 103.769531 55.835938 103.816406 C 52.242188 103.898438 48.671875 103.246094 45.335938 101.90625 C 45.179688 101.84375 45.015625 101.808594 44.753906 101.726562 L 44.753906 113.0625 C 44.753906 115.164062 44.320312 115.617188 42.25 115.617188 L 23.582031 115.617188 C 21.230469 115.617188 18.871094 115.617188 16.519531 115.617188 C 14.988281 115.617188 14.382812 115.027344 14.382812 113.535156 C 14.382812 101.398438 14.382812 89.265625 14.382812 77.132812 C 14.382812 75.703125 14.996094 75.109375 16.460938 75.105469 L 29.496094 75.105469 L 29.496094 54.925781 C 27.269531 54.492188 28.050781 52.621094 27.785156 50.824219 C 27.226562 51.472656 26.878906 51.9375 26.464844 52.34375 C 25.496094 53.273438 24.664062 53.277344 23.710938 52.34375 C 21.4375 50.09375 19.175781 47.828125 16.925781 45.550781 C 15.980469 44.597656 15.988281 43.765625 16.925781 42.804688 C 17.332031 42.402344 17.765625 42.058594 18.199219 41.6875 L 18.097656 41.386719 C 17.496094 41.386719 16.894531 41.386719 16.292969 41.386719 C 15.046875 41.351562 14.402344 40.742188 14.394531 39.5 C 14.378906 36.265625 14.378906 33.03125 14.394531 29.796875 C 14.394531 28.542969 15.03125 27.929688 16.28125 27.894531 C 16.871094 27.894531 17.460938 27.894531 18.042969 27.894531 L 18.265625 27.609375 C 17.832031 27.261719 17.398438 26.945312 17.027344 26.5625 C 15.976562 25.515625 15.96875 24.699219 16.996094 23.664062 C 19.195312 21.441406 21.40625 19.230469 23.628906 17.027344 C 24.707031 15.960938 25.507812 15.972656 26.609375 17.070312 C 26.976562 17.429688 27.292969 17.835938 27.628906 18.222656 L 27.890625 18.070312 C 27.890625 17.488281 27.890625 16.910156 27.890625 16.335938 C 27.917969 15.035156 28.527344 14.417969 29.851562 14.414062 C 33.0625 14.382812 36.253906 14.378906 39.433594 14.394531 C 40.734375 14.394531 41.335938 15.03125 41.367188 16.359375 C 41.367188 16.914062 41.367188 17.472656 41.367188 18.320312 C 41.964844 17.730469 42.378906 17.292969 42.820312 16.886719 C 43.753906 16.019531 44.589844 16.019531 45.5 16.886719 C 47.800781 19.160156 50.128906 21.410156 52.328125 23.777344 C 52.828125 24.308594 52.859375 25.28125 53.132812 26.136719 C 61.671875 26.492188 70.566406 25.601562 79.535156 26.753906 C 81.492188 21.613281 85.015625 17.785156 90.253906 15.679688 C 94 14.152344 98.148438 13.929688 102.035156 15.050781 C 109.753906 17.183594 115.386719 24.324219 115.601562 32.21875 C 115.808594 36.984375 114.140625 41.640625 110.953125 45.1875 C 107.742188 48.867188 103.632812 50.882812 98.800781 51.445312 Z M 95.332031 78.578125 L 95.332031 51.609375 C 83.730469 49.144531 78.128906 42.078125 78.523438 30.019531 C 70.722656 29.089844 62.835938 29.839844 54.878906 29.523438 L 54.878906 30.824219 C 54.878906 33.671875 54.878906 36.515625 54.878906 39.363281 C 54.878906 40.746094 54.257812 41.34375 52.882812 41.371094 C 52.3125 41.371094 51.738281 41.371094 51.152344 41.371094 L 51.046875 41.664062 C 51.480469 42.058594 51.972656 42.417969 52.386719 42.851562 C 53.226562 43.71875 53.253906 44.585938 52.386719 45.453125 C 50.09375 47.785156 47.785156 50.09375 45.453125 52.386719 C 44.554688 53.253906 43.71875 53.253906 42.777344 52.339844 C 42.34375 51.933594 42.003906 51.472656 41.617188 51.039062 L 41.351562 51.207031 C 41.351562 51.507812 41.351562 51.804688 41.351562 52.109375 C 41.351562 54.535156 40.992188 54.878906 38.53125 54.878906 L 33.019531 54.878906 L 33.019531 75.082031 C 35.429688 75.222656 35.429688 75.21875 37.089844 76.878906 C 38.75 78.539062 40.375 80.167969 42.035156 81.8125 C 42.6875 82.472656 43.332031 83.15625 44.050781 83.914062 C 44.832031 83.089844 45.464844 82.386719 46.140625 81.71875 C 47.042969 80.808594 48.25 80.269531 49.53125 80.210938 C 51.6875 80.09375 53.699219 81.3125 54.601562 83.277344 C 55.535156 85.289062 55.09375 87.667969 53.5 89.210938 C 50.898438 91.871094 48.238281 94.488281 45.609375 97.121094 C 45.351562 97.378906 45.117188 97.65625 44.851562 97.945312 C 47.6875 99.480469 50.84375 100.328125 54.066406 100.421875 C 60.816406 100.449219 67.566406 100.460938 74.316406 100.421875 C 75.765625 100.421875 77.210938 100.085938 78.691406 99.90625 C 78.023438 94.503906 79.238281 89.785156 82.472656 85.664062 C 85.703125 81.542969 90.085938 79.199219 95.332031 78.578125 Z M 112.234375 33.007812 C 112.234375 24.644531 105.441406 17.769531 97.167969 17.765625 C 88.785156 17.710938 81.949219 24.460938 81.902344 32.84375 C 81.851562 41.222656 88.605469 48.054688 96.984375 48.097656 C 105.363281 48.144531 112.191406 41.386719 112.234375 33.007812 Z M 112.234375 97.09375 C 112.234375 88.714844 105.4375 81.921875 97.058594 81.925781 C 88.679688 81.929688 81.890625 88.726562 81.898438 97.105469 C 81.90625 105.484375 88.710938 112.269531 97.089844 112.257812 C 105.445312 112.214844 112.203125 105.449219 112.234375 97.09375 Z M 41.316406 101.339844 C 40.058594 102.640625 39.023438 103.726562 37.933594 104.765625 C 37.511719 105.171875 37.019531 105.5 36.480469 105.734375 C 33.957031 106.785156 31.40625 107.78125 28.871094 108.8125 C 28.101562 109.125 27.371094 109.207031 26.707031 108.585938 C 26.042969 107.960938 26.121094 107.15625 26.449219 106.347656 C 27.441406 103.910156 28.378906 101.453125 29.40625 99.03125 C 29.691406 98.355469 30.097656 97.738281 30.605469 97.214844 C 33.984375 93.785156 37.386719 90.378906 40.816406 87 C 41.433594 86.390625 41.472656 86.003906 40.816406 85.382812 C 38.695312 83.328125 36.652344 81.199219 34.523438 79.15625 C 34.101562 78.773438 33.558594 78.546875 32.988281 78.519531 C 28.25 78.472656 23.503906 78.492188 18.757812 78.492188 L 17.8125 78.492188 L 17.8125 112.167969 L 41.332031 112.167969 Z M 44.078125 20.464844 C 42.828125 21.332031 42.140625 23.238281 39.746094 22.269531 C 37.347656 21.296875 38.261719 19.355469 37.917969 17.824219 L 31.359375 17.824219 C 30.925781 19.265625 31.941406 20.964844 29.972656 22.050781 C 27.550781 23.398438 26.433594 21.71875 25.242188 20.476562 L 20.476562 25.242188 C 21.339844 26.460938 23.230469 27.175781 22.238281 29.550781 C 21.246094 31.921875 19.394531 31.042969 17.8125 31.339844 L 17.8125 38.011719 C 18.621094 38.011719 19.351562 38.011719 20.085938 38.011719 C 20.953125 38.011719 21.457031 38.445312 21.929688 39.148438 C 23.46875 41.492188 21.847656 42.816406 20.363281 44.105469 L 25.082031 48.871094 C 26.382812 48.050781 27.042969 46.054688 29.441406 47.011719 C 31.835938 47.96875 31.007812 49.882812 31.296875 51.457031 L 37.972656 51.457031 C 38.160156 49.753906 37.441406 47.992188 39.828125 47.007812 C 42.214844 46.023438 42.859375 48.085938 44.136719 48.851562 L 48.820312 44.15625 C 47.988281 42.855469 46.019531 42.21875 46.988281 39.824219 C 47.953125 37.425781 49.875 38.292969 51.453125 37.976562 L 51.453125 31.316406 C 49.820312 31.0625 47.988281 31.859375 46.996094 29.519531 C 46.003906 27.179688 47.996094 26.40625 48.796875 25.183594 Z M 44.945312 88.117188 L 33.996094 99.015625 L 36.253906 101.367188 L 47.234375 90.410156 Z M 47.324219 85.324219 L 49.898438 88.042969 C 50.679688 87.152344 52.066406 86.535156 51.632812 85.066406 C 51.363281 84.40625 50.820312 83.898438 50.144531 83.671875 C 48.695312 83.300781 48.101562 84.625 47.316406 85.324219 Z M 30.917969 104.359375 L 32.980469 103.492188 L 31.828125 102.074219 Z M 30.917969 104.359375 "/>
<path style=" stroke:none;fill-rule:nonzero;fill:rgb(53.72549%,8.235294%,30.980392%);fill-opacity:1;" d="M 71.472656 62.039062 C 73.851562 62.71875 75.964844 64.101562 77.539062 66.003906 C 79.773438 68.714844 80.421875 71.878906 80.183594 75.277344 C 80.109375 76.296875 79.386719 76.816406 78.160156 76.816406 C 74.695312 76.816406 71.21875 76.816406 67.730469 76.816406 L 52 76.816406 C 50.359375 76.816406 49.8125 76.253906 49.796875 74.589844 C 49.753906 68.261719 52.371094 64.390625 58.195312 62.15625 C 58.289062 62.109375 58.371094 62.050781 58.449219 61.984375 C 55.679688 57.035156 56.117188 52.863281 59.703125 50.007812 C 62.890625 47.433594 67.464844 47.527344 70.539062 50.238281 C 73.929688 53.203125 74.296875 57.53125 71.472656 62.039062 Z M 53.238281 73.375 L 76.769531 73.375 C 76.835938 69.53125 74.011719 65.742188 70.191406 65.304688 C 66.734375 64.910156 63.246094 64.910156 59.792969 65.304688 C 56 65.738281 53.160156 69.550781 53.238281 73.375 Z M 70.0625 56.546875 C 70.046875 53.757812 67.78125 51.503906 64.992188 51.511719 C 62.203125 51.515625 59.945312 53.773438 59.9375 56.5625 C 59.933594 59.351562 62.183594 61.617188 64.972656 61.632812 C 66.324219 61.636719 67.621094 61.101562 68.574219 60.144531 C 69.527344 59.191406 70.0625 57.894531 70.0625 56.546875 Z M 70.0625 56.546875 "/>
<path style=" stroke:none;fill-rule:nonzero;fill:rgb(53.72549%,8.235294%,30.980392%);fill-opacity:1;" d="M 89.136719 34.179688 L 91.484375 31.824219 L 96.84375 37.359375 L 105.902344 26.804688 L 108.46875 28.972656 L 105.238281 32.746094 C 103.039062 35.304688 100.84375 37.867188 98.652344 40.425781 C 97.585938 41.664062 96.703125 41.726562 95.554688 40.570312 C 93.433594 38.476562 91.328125 36.367188 89.136719 34.179688 Z M 89.136719 34.179688 "/>
<path style=" stroke:none;fill-rule:nonzero;fill:rgb(53.72549%,8.235294%,30.980392%);fill-opacity:1;" d="M 99.921875 104.949219 L 97.667969 102.644531 L 101.367188 99.113281 L 101.1875 98.808594 L 87.003906 98.808594 L 87.003906 95.421875 L 101.222656 95.421875 L 97.390625 91.710938 L 100.050781 89.320312 C 100.21875 89.441406 100.378906 89.570312 100.527344 89.714844 C 102.46875 91.644531 104.40625 93.582031 106.339844 95.519531 C 107.476562 96.664062 107.492188 97.457031 106.382812 98.554688 C 104.429688 100.519531 102.46875 102.480469 100.503906 104.433594 C 100.328125 104.625 100.132812 104.765625 99.921875 104.949219 Z M 99.921875 104.949219 "/>
<path style=" stroke:none;fill-rule:nonzero;fill:rgb(53.72549%,8.235294%,30.980392%);fill-opacity:1;" d="M 34.566406 85.207031 L 21.234375 85.207031 L 21.234375 81.953125 L 34.566406 81.953125 Z M 34.566406 85.207031 "/>
<path style=" stroke:none;fill-rule:nonzero;fill:rgb(53.72549%,8.235294%,30.980392%);fill-opacity:1;" d="M 31.199219 88.707031 L 31.199219 91.953125 L 21.234375 91.953125 L 21.234375 88.707031 Z M 31.199219 88.707031 "/>
<path style=" stroke:none;fill-rule:nonzero;fill:rgb(53.72549%,8.235294%,30.980392%);fill-opacity:1;" d="M 21.195312 95.433594 L 26.113281 95.433594 L 26.113281 98.6875 L 21.195312 98.6875 Z M 21.195312 95.433594 "/>
<path style=" stroke:none;fill-rule:nonzero;fill:rgb(53.72549%,8.235294%,30.980392%);fill-opacity:1;" d="M 24.460938 102.1875 L 24.460938 105.433594 L 21.199219 105.433594 L 21.199219 102.1875 Z M 24.460938 102.1875 "/>
<path style=" stroke:none;fill-rule:nonzero;fill:rgb(53.72549%,8.235294%,30.980392%);fill-opacity:1;" d="M 24.503906 34.078125 C 23.714844 31.515625 25.371094 29.542969 27.402344 27.410156 C 29.4375 25.273438 31.632812 24.40625 34.667969 24.398438 C 37.699219 24.386719 39.789062 25.285156 41.90625 27.429688 C 44.027344 29.574219 44.878906 31.601562 44.890625 34.585938 C 44.890625 37.617188 44.023438 39.785156 41.855469 41.929688 C 39.6875 44.074219 37.660156 44.871094 34.691406 44.882812 C 31.722656 44.898438 29.492188 44.15625 27.464844 41.851562 C 24.65625 38.691406 24.503906 38.828125 24.503906 34.078125 Z M 41.378906 35.101562 C 41.378906 31.851562 41.285156 31.9375 39.425781 29.835938 C 38.125 28.339844 36.6875 27.832031 34.707031 27.828125 C 32.839844 27.726562 31.03125 28.464844 29.769531 29.84375 C 28.457031 31.074219 27.738281 32.8125 27.800781 34.609375 C 27.710938 36.472656 28.46875 38.273438 29.855469 39.515625 C 31.054688 40.804688 32.746094 41.515625 34.507812 41.46875 C 36.597656 41.46875 38.085938 40.929688 39.527344 39.394531 C 40.835938 38.003906 41.871094 36.738281 41.378906 35.101562 Z M 41.378906 35.101562 "/>
</g>
</svg>
