<?xml version="1.0" encoding="UTF-8"?>
<svg xmlns="http://www.w3.org/2000/svg" xmlns:xlink="http://www.w3.org/1999/xlink" width="150px" height="150px" viewBox="0 0 150 150" version="1.1">
<g id="surface1">
<path style=" stroke:none;fill-rule:nonzero;fill:rgb(53.72549%,8.235294%,30.980392%);fill-opacity:1;" d="M 114 59.359375 L 114 90.648438 C 120.476562 91.449219 125.703125 94.386719 129.5 99.691406 C 132.289062 103.582031 133.667969 108.3125 133.40625 113.09375 C 133.03125 122.46875 126.066406 130.738281 116.796875 132.890625 C 106.121094 135.265625 95.351562 129.304688 91.695312 119 C 90.5625 119.242188 89.414062 119.414062 88.261719 119.523438 C 84.859375 119.660156 81.457031 119.738281 78.054688 119.765625 C 73.511719 119.804688 68.964844 119.734375 64.425781 119.789062 C 60.277344 119.878906 56.15625 119.128906 52.308594 117.585938 C 52.128906 117.511719 51.941406 117.46875 51.640625 117.375 L 51.640625 130.453125 C 51.640625 132.878906 51.140625 133.40625 48.75 133.40625 L 27.210938 133.40625 C 24.496094 133.40625 21.773438 133.40625 19.058594 133.40625 C 17.296875 133.40625 16.59375 132.726562 16.59375 131 C 16.59375 117 16.59375 103 16.59375 89 C 16.59375 87.351562 17.304688 86.664062 18.996094 86.660156 L 34.035156 86.660156 L 34.035156 63.375 C 31.464844 62.875 32.363281 60.714844 32.058594 58.644531 C 31.414062 59.390625 31.015625 59.929688 30.535156 60.394531 C 29.421875 61.46875 28.460938 61.476562 27.359375 60.394531 C 24.738281 57.796875 22.125 55.1875 19.53125 52.558594 C 18.441406 51.460938 18.449219 50.5 19.53125 49.390625 C 20 48.925781 20.5 48.53125 21 48.101562 L 20.878906 47.753906 C 20.191406 47.753906 19.496094 47.753906 18.800781 47.753906 C 17.359375 47.714844 16.621094 47.011719 16.609375 45.574219 C 16.589844 41.84375 16.589844 38.113281 16.609375 34.378906 C 16.609375 32.933594 17.34375 32.226562 18.785156 32.183594 C 19.464844 32.183594 20.144531 32.183594 20.820312 32.183594 L 21.074219 31.855469 C 20.574219 31.453125 20.074219 31.089844 19.644531 30.648438 C 18.433594 29.441406 18.425781 28.5 19.609375 27.304688 C 22.148438 24.742188 24.703125 22.1875 27.265625 19.644531 C 28.511719 18.414062 29.429688 18.429688 30.703125 19.695312 C 31.125 20.109375 31.488281 20.578125 31.878906 21.023438 L 32.179688 20.851562 C 32.179688 20.179688 32.179688 19.511719 32.179688 18.851562 C 32.214844 17.351562 32.914062 16.636719 34.445312 16.628906 C 38.148438 16.597656 41.832031 16.589844 45.5 16.609375 C 47 16.609375 47.695312 17.34375 47.730469 18.875 C 47.730469 19.515625 47.730469 20.160156 47.730469 21.140625 C 48.421875 20.460938 48.898438 19.953125 49.410156 19.484375 C 50.484375 18.484375 51.449219 18.484375 52.5 19.484375 C 55.15625 22.109375 57.839844 24.703125 60.378906 27.433594 C 60.953125 28.050781 60.988281 29.171875 61.304688 30.160156 C 71.160156 30.570312 81.425781 29.539062 91.769531 30.871094 C 94.03125 24.941406 98.09375 20.519531 104.140625 18.089844 C 108.460938 16.328125 113.25 16.074219 117.734375 17.363281 C 126.640625 19.824219 133.140625 28.066406 133.386719 37.175781 C 133.625 42.671875 131.699219 48.042969 128.023438 52.140625 C 124.320312 56.386719 119.574219 58.710938 114 59.359375 Z M 110 90.664062 L 110 59.550781 C 96.609375 56.703125 90.148438 48.550781 90.605469 34.640625 C 81.605469 33.566406 72.503906 34.429688 63.320312 34.066406 L 63.320312 35.566406 C 63.320312 38.851562 63.320312 42.136719 63.320312 45.421875 C 63.320312 47.015625 62.605469 47.703125 61.019531 47.734375 C 60.359375 47.734375 59.699219 47.734375 59.019531 47.734375 L 58.898438 48.074219 C 59.398438 48.53125 59.96875 48.945312 60.445312 49.445312 C 61.414062 50.445312 61.445312 51.445312 60.445312 52.445312 C 57.800781 55.136719 55.136719 57.800781 52.445312 60.445312 C 51.410156 61.445312 50.445312 61.445312 49.359375 60.390625 C 48.859375 59.925781 48.464844 59.390625 48.019531 58.890625 L 47.714844 59.085938 C 47.714844 59.429688 47.714844 59.773438 47.714844 60.125 C 47.714844 62.925781 47.300781 63.320312 44.460938 63.320312 L 38.101562 63.320312 L 38.101562 86.636719 C 40.878906 86.796875 40.878906 86.789062 42.796875 88.703125 C 44.710938 90.621094 46.585938 92.5 48.5 94.398438 C 49.253906 95.160156 50 95.949219 50.828125 96.824219 C 51.730469 95.875 52.460938 95.058594 53.238281 94.289062 C 54.277344 93.238281 55.675781 92.617188 57.148438 92.550781 C 59.640625 92.417969 61.960938 93.820312 63 96.089844 C 64.078125 98.410156 63.570312 101.15625 61.730469 102.933594 C 58.730469 106.003906 55.660156 109.023438 52.625 112.066406 C 52.328125 112.359375 52.058594 112.679688 51.75 113.015625 C 55.023438 114.785156 58.664062 115.761719 62.386719 115.871094 C 70.175781 115.90625 77.960938 115.914062 85.75 115.871094 C 87.421875 115.871094 89.089844 115.484375 90.800781 115.273438 C 90.023438 109.046875 91.429688 103.601562 95.160156 98.84375 C 98.890625 94.089844 103.945312 91.386719 110 90.664062 Z M 129.5 38.085938 C 129.5 28.433594 121.664062 20.503906 112.113281 20.5 C 102.445312 20.4375 94.558594 28.226562 94.5 37.894531 C 94.441406 47.5625 102.238281 55.445312 111.90625 55.5 C 121.574219 55.550781 129.453125 47.753906 129.5 38.085938 Z M 129.5 112.03125 C 129.5 102.363281 121.660156 94.527344 111.992188 94.53125 C 102.324219 94.535156 94.492188 102.378906 94.5 112.046875 C 94.507812 121.714844 102.355469 129.542969 112.023438 129.53125 C 121.664062 129.480469 129.464844 121.671875 129.5 112.03125 Z M 47.675781 116.929688 C 46.21875 118.429688 45.023438 119.683594 43.769531 120.886719 C 43.28125 121.355469 42.714844 121.730469 42.09375 122 C 39.179688 123.214844 36.238281 124.363281 33.316406 125.554688 C 32.425781 125.914062 31.578125 126.011719 30.816406 125.289062 C 30.050781 124.570312 30.140625 123.640625 30.519531 122.710938 C 31.664062 119.894531 32.746094 117.058594 33.929688 114.265625 C 34.257812 113.488281 34.726562 112.777344 35.316406 112.171875 C 39.210938 108.214844 43.136719 104.285156 47.09375 100.386719 C 47.808594 99.679688 47.855469 99.234375 47.09375 98.519531 C 44.648438 96.148438 42.289062 93.691406 39.835938 91.335938 C 39.347656 90.890625 38.722656 90.632812 38.066406 90.601562 C 32.59375 90.546875 27.121094 90.570312 21.644531 90.570312 L 20.554688 90.570312 L 20.554688 129.425781 L 47.691406 129.425781 Z M 50.859375 23.613281 C 49.414062 24.613281 48.625 26.816406 45.859375 25.695312 C 43.09375 24.574219 44.148438 22.335938 43.75 20.566406 L 36.183594 20.566406 C 35.683594 22.230469 36.855469 24.191406 34.585938 25.445312 C 31.789062 27 30.5 25.058594 29.125 23.625 L 23.625 29.125 C 24.625 30.53125 26.804688 31.355469 25.660156 34.09375 C 24.515625 36.835938 22.378906 35.820312 20.554688 36.160156 L 20.554688 43.859375 C 21.484375 43.859375 22.328125 43.859375 23.175781 43.859375 C 24.175781 43.859375 24.761719 44.359375 25.304688 45.171875 C 27.078125 47.875 25.210938 49.40625 23.496094 50.890625 L 28.941406 56.390625 C 30.441406 55.445312 31.203125 53.140625 33.96875 54.246094 C 36.734375 55.351562 35.78125 57.554688 36.109375 59.375 L 43.816406 59.375 C 44.03125 57.410156 43.199219 55.375 45.953125 54.238281 C 48.710938 53.105469 49.453125 55.484375 50.925781 56.363281 L 56.328125 50.949219 C 55.371094 49.449219 53.101562 48.714844 54.214844 45.949219 C 55.328125 43.183594 57.550781 44.183594 59.371094 43.820312 L 59.371094 36.136719 C 57.484375 35.839844 55.371094 36.761719 54.226562 34.058594 C 53.078125 31.359375 55.378906 30.46875 56.304688 29.058594 Z M 51.859375 101.675781 L 39.226562 114.25 L 41.828125 116.960938 L 54.5 104.320312 Z M 54.605469 98.449219 L 57.574219 101.589844 C 58.476562 100.558594 60.074219 99.851562 59.574219 98.15625 C 59.265625 97.394531 58.640625 96.804688 57.859375 96.546875 C 56.183594 96.113281 55.5 97.644531 54.59375 98.449219 Z M 35.675781 120.414062 L 38.054688 119.414062 L 36.726562 117.78125 Z M 35.675781 120.414062 "/>
<path style=" stroke:none;fill-rule:nonzero;fill:rgb(53.72549%,8.235294%,30.980392%);fill-opacity:1;" d="M 82.46875 71.585938 C 85.210938 72.367188 87.652344 73.960938 89.46875 76.160156 C 92.046875 79.285156 92.796875 82.933594 92.519531 86.859375 C 92.433594 88.035156 91.601562 88.636719 90.183594 88.636719 C 86.183594 88.636719 82.171875 88.636719 78.148438 88.636719 L 60 88.636719 C 58.105469 88.636719 57.476562 87.984375 57.460938 86.066406 C 57.410156 78.765625 60.429688 74.296875 67.148438 71.71875 C 67.253906 71.667969 67.351562 71.597656 67.441406 71.519531 C 64.246094 65.808594 64.75 60.996094 68.890625 57.699219 C 72.5625 54.730469 77.84375 54.839844 81.390625 57.964844 C 85.304688 61.390625 85.726562 66.378906 82.46875 71.585938 Z M 61.429688 84.664062 L 88.578125 84.664062 C 88.65625 80.230469 85.398438 75.855469 80.988281 75.351562 C 77.003906 74.894531 72.976562 74.894531 68.988281 75.351562 C 64.613281 75.851562 61.339844 80.25 61.429688 84.664062 Z M 80.839844 65.246094 C 80.824219 62.027344 78.207031 59.429688 74.988281 59.433594 C 71.773438 59.441406 69.164062 62.046875 69.160156 65.265625 C 69.15625 68.484375 71.753906 71.097656 74.96875 71.113281 C 76.527344 71.117188 78.023438 70.5 79.125 69.398438 C 80.226562 68.296875 80.84375 66.800781 80.839844 65.246094 Z M 80.839844 65.246094 "/>
<path style=" stroke:none;fill-rule:nonzero;fill:rgb(53.72549%,8.235294%,30.980392%);fill-opacity:1;" d="M 102.851562 39.441406 L 105.558594 36.71875 L 111.746094 43.105469 L 122.195312 30.929688 L 125.15625 33.429688 L 121.429688 37.785156 C 118.894531 40.738281 116.359375 43.691406 113.828125 46.644531 C 112.601562 48.074219 111.578125 48.144531 110.253906 46.808594 C 107.808594 44.394531 105.378906 41.960938 102.851562 39.441406 Z M 102.851562 39.441406 "/>
<path style=" stroke:none;fill-rule:nonzero;fill:rgb(53.72549%,8.235294%,30.980392%);fill-opacity:1;" d="M 115.296875 121.09375 L 112.695312 118.433594 L 116.960938 114.359375 L 116.753906 114.011719 L 100.390625 114.011719 L 100.390625 110.101562 L 116.796875 110.101562 L 112.375 105.820312 L 115.445312 103.058594 C 115.636719 103.199219 115.820312 103.351562 115.996094 103.515625 C 118.234375 105.746094 120.46875 107.976562 122.699219 110.214844 C 124.011719 111.535156 124.03125 112.449219 122.75 113.714844 C 120.496094 115.984375 118.234375 118.246094 115.964844 120.5 C 115.765625 120.71875 115.539062 120.886719 115.296875 121.09375 Z M 115.296875 121.09375 "/>
<path style=" stroke:none;fill-rule:nonzero;fill:rgb(53.72549%,8.235294%,30.980392%);fill-opacity:1;" d="M 39.886719 98.316406 L 24.5 98.316406 L 24.5 94.558594 L 39.886719 94.558594 Z M 39.886719 98.316406 "/>
<path style=" stroke:none;fill-rule:nonzero;fill:rgb(53.72549%,8.235294%,30.980392%);fill-opacity:1;" d="M 36 102.355469 L 36 106.101562 L 24.5 106.101562 L 24.5 102.355469 Z M 36 102.355469 "/>
<path style=" stroke:none;fill-rule:nonzero;fill:rgb(53.72549%,8.235294%,30.980392%);fill-opacity:1;" d="M 24.453125 110.113281 L 30.128906 110.113281 L 30.128906 113.871094 L 24.453125 113.871094 Z M 24.453125 110.113281 "/>
<path style=" stroke:none;fill-rule:nonzero;fill:rgb(53.72549%,8.235294%,30.980392%);fill-opacity:1;" d="M 28.226562 117.910156 L 28.226562 121.65625 L 24.460938 121.65625 L 24.460938 117.910156 Z M 28.226562 117.910156 "/>
<path style=" stroke:none;fill-rule:nonzero;fill:rgb(53.72549%,8.235294%,30.980392%);fill-opacity:1;" d="M 28.273438 39.320312 C 27.363281 36.363281 29.273438 34.089844 31.621094 31.625 C 33.964844 29.160156 36.5 28.160156 40 28.148438 C 43.5 28.140625 45.910156 29.175781 48.355469 31.648438 C 50.800781 34.125 51.785156 36.464844 51.796875 39.90625 C 51.796875 43.40625 50.796875 45.90625 48.296875 48.378906 C 45.796875 50.855469 43.453125 51.773438 40.03125 51.789062 C 36.605469 51.804688 34.03125 50.949219 31.691406 48.289062 C 28.449219 44.644531 28.273438 44.800781 28.273438 39.320312 Z M 47.746094 40.5 C 47.746094 36.75 47.636719 36.851562 45.488281 34.425781 C 43.988281 32.699219 42.328125 32.113281 40.046875 32.109375 C 37.894531 31.992188 35.804688 32.84375 34.351562 34.433594 C 32.835938 35.855469 32.007812 37.859375 32.078125 39.933594 C 31.976562 42.082031 32.847656 44.164062 34.449219 45.59375 C 35.832031 47.082031 37.785156 47.902344 39.816406 47.851562 C 42.230469 47.851562 43.945312 47.226562 45.609375 45.453125 C 47.121094 43.851562 48.316406 42.390625 47.746094 40.5 Z M 47.746094 40.5 "/>
</g>
</svg>
